STARTFONT 2.1
FONT Underground10
SIZE 10 75 75
FONTBOUNDINGBOX 7 10 0 -1
STARTPROPERTIES 2
FONT_ASCENT 9
FONT_DESCENT 1
ENDPROPERTIES
CHARS 98
STARTCHAR U+0020
ENCODING 32
SWIDTH 500 0
DWIDTH 5 0
BBX 0 0 0 9
BITMAP
ENDCHAR
STARTCHAR U+0021
ENCODING 33
SWIDTH 200 0
DWIDTH 2 0
BBX 1 9 0 0
BITMAP
80
80
80
80
80
80
80
00
80
ENDCHAR
STARTCHAR U+0022
ENCODING 34
SWIDTH 400 0
DWIDTH 4 0
BBX 3 2 0 7
BITMAP
A0
A0
ENDCHAR
STARTCHAR U+0023
ENCODING 35
SWIDTH 600 0
DWIDTH 6 0
BBX 5 9 0 0
BITMAP
50
50
F8
50
50
50
F8
50
50
ENDCHAR
STARTCHAR U+0024
ENCODING 36
SWIDTH 600 0
DWIDTH 6 0
BBX 5 9 0 0
BITMAP
20
70
A0
A0
70
28
28
70
20
ENDCHAR
STARTCHAR U+0025
ENCODING 37
SWIDTH 600 0
DWIDTH 6 0
BBX 5 9 0 0
BITMAP
08
C8
C8
10
20
40
98
98
80
ENDCHAR
STARTCHAR U+0026
ENCODING 38
SWIDTH 700 0
DWIDTH 7 0
BBX 6 8 0 0
BITMAP
60
90
90
60
94
88
94
64
ENDCHAR
STARTCHAR U+0027
ENCODING 39
SWIDTH 300 0
DWIDTH 3 0
BBX 2 4 0 5
BITMAP
C0
C0
40
80
ENDCHAR
STARTCHAR U+0028
ENCODING 40
SWIDTH 300 0
DWIDTH 3 0
BBX 2 9 0 0
BITMAP
40
80
80
80
80
80
80
80
40
ENDCHAR
STARTCHAR U+0029
ENCODING 41
SWIDTH 300 0
DWIDTH 3 0
BBX 2 9 0 0
BITMAP
80
40
40
40
40
40
40
40
80
ENDCHAR
STARTCHAR U+002A
ENCODING 42
SWIDTH 600 0
DWIDTH 6 0
BBX 5 7 0 1
BITMAP
20
A8
70
F8
70
A8
20
ENDCHAR
STARTCHAR U+002B
ENCODING 43
SWIDTH 600 0
DWIDTH 6 0
BBX 5 5 0 2
BITMAP
20
20
F8
20
20
ENDCHAR
STARTCHAR U+002C
ENCODING 44
SWIDTH 300 0
DWIDTH 3 0
BBX 2 4 0 -1
BITMAP
C0
C0
40
80
ENDCHAR
STARTCHAR U+002D
ENCODING 45
SWIDTH 600 0
DWIDTH 6 0
BBX 5 1 0 4
BITMAP
F8
ENDCHAR
STARTCHAR U+002E
ENCODING 46
SWIDTH 300 0
DWIDTH 3 0
BBX 2 2 0 0
BITMAP
C0
C0
ENDCHAR
STARTCHAR U+002F
ENCODING 47
SWIDTH 700 0
DWIDTH 7 0
BBX 7 7 0 1
BITMAP
02
04
08
10
20
40
80
ENDCHAR
STARTCHAR U+0030
ENCODING 48
SWIDTH 700 0
DWIDTH 7 0
BBX 6 9 0 0
BITMAP
78
84
84
84
84
84
84
84
78
ENDCHAR
STARTCHAR U+0031
ENCODING 49
SWIDTH 700 0
DWIDTH 7 0
BBX 2 9 2 0
BITMAP
40
C0
40
40
40
40
40
40
40
ENDCHAR
STARTCHAR U+0032
ENCODING 50
SWIDTH 700 0
DWIDTH 7 0
BBX 6 9 0 0
BITMAP
78
84
04
04
08
10
20
40
FC
ENDCHAR
STARTCHAR U+0033
ENCODING 51
SWIDTH 700 0
DWIDTH 7 0
BBX 6 9 0 0
BITMAP
78
84
04
04
38
04
04
84
78
ENDCHAR
STARTCHAR U+0034
ENCODING 52
SWIDTH 700 0
DWIDTH 7 0
BBX 6 9 0 0
BITMAP
08
18
28
48
88
FC
08
08
08
ENDCHAR
STARTCHAR U+0035
ENCODING 53
SWIDTH 700 0
DWIDTH 7 0
BBX 6 9 0 0
BITMAP
FC
80
80
F8
04
04
04
84
78
ENDCHAR
STARTCHAR U+0036
ENCODING 54
SWIDTH 700 0
DWIDTH 7 0
BBX 6 9 0 0
BITMAP
78
84
80
80
F8
84
84
84
78
ENDCHAR
STARTCHAR U+0037
ENCODING 55
SWIDTH 700 0
DWIDTH 7 0
BBX 6 9 0 0
BITMAP
FC
04
04
08
10
20
40
80
80
ENDCHAR
STARTCHAR U+0038
ENCODING 56
SWIDTH 700 0
DWIDTH 7 0
BBX 6 9 0 0
BITMAP
78
84
84
84
78
84
84
84
78
ENDCHAR
STARTCHAR U+0039
ENCODING 57
SWIDTH 700 0
DWIDTH 7 0
BBX 6 9 0 0
BITMAP
78
84
84
84
7C
04
04
84
78
ENDCHAR
STARTCHAR U+003A
ENCODING 58
SWIDTH 300 0
DWIDTH 3 0
BBX 2 6 0 1
BITMAP
C0
C0
00
00
C0
C0
ENDCHAR
STARTCHAR U+003B
ENCODING 59
SWIDTH 300 0
DWIDTH 3 0
BBX 2 7 0 0
BITMAP
C0
C0
00
00
C0
40
80
ENDCHAR
STARTCHAR U+003C
ENCODING 60
SWIDTH 500 0
DWIDTH 5 0
BBX 4 7 0 1
BITMAP
10
20
40
80
40
20
10
ENDCHAR
STARTCHAR U+003D
ENCODING 61
SWIDTH 500 0
DWIDTH 5 0
BBX 4 3 0 3
BITMAP
F0
00
F0
ENDCHAR
STARTCHAR U+003E
ENCODING 62
SWIDTH 500 0
DWIDTH 5 0
BBX 4 7 0 1
BITMAP
80
40
20
10
20
40
80
ENDCHAR
STARTCHAR U+003F
ENCODING 63
SWIDTH 600 0
DWIDTH 6 0
BBX 5 9 0 0
BITMAP
70
88
88
08
10
20
20
00
20
ENDCHAR
STARTCHAR U+0040
ENCODING 64
SWIDTH 600 0
DWIDTH 6 0
BBX 5 9 0 0
BITMAP
70
88
88
A8
A8
B8
80
80
70
ENDCHAR
STARTCHAR U+0041
ENCODING 65
SWIDTH 700 0
DWIDTH 7 0
BBX 6 9 0 0
BITMAP
78
84
84
84
FC
84
84
84
84
ENDCHAR
STARTCHAR U+0042
ENCODING 66
SWIDTH 700 0
DWIDTH 7 0
BBX 6 9 0 0
BITMAP
F8
84
84
84
F8
84
84
84
F8
ENDCHAR
STARTCHAR U+0043
ENCODING 67
SWIDTH 700 0
DWIDTH 7 0
BBX 6 9 0 0
BITMAP
78
84
80
80
80
80
80
84
78
ENDCHAR
STARTCHAR U+0044
ENCODING 68
SWIDTH 700 0
DWIDTH 7 0
BBX 6 9 0 0
BITMAP
F8
84
84
84
84
84
84
84
F8
ENDCHAR
STARTCHAR U+0045
ENCODING 69
SWIDTH 700 0
DWIDTH 7 0
BBX 6 9 0 0
BITMAP
FC
80
80
80
FC
80
80
80
FC
ENDCHAR
STARTCHAR U+0046
ENCODING 70
SWIDTH 700 0
DWIDTH 7 0
BBX 6 9 0 0
BITMAP
FC
80
80
80
FC
80
80
80
80
ENDCHAR
STARTCHAR U+0047
ENCODING 71
SWIDTH 700 0
DWIDTH 7 0
BBX 6 9 0 0
BITMAP
78
84
80
80
BC
84
84
84
78
ENDCHAR
STARTCHAR U+0048
ENCODING 72
SWIDTH 700 0
DWIDTH 7 0
BBX 6 9 0 0
BITMAP
84
84
84
84
FC
84
84
84
84
ENDCHAR
STARTCHAR U+0049
ENCODING 73
SWIDTH 400 0
DWIDTH 4 0
BBX 3 9 0 0
BITMAP
E0
40
40
40
40
40
40
40
E0
ENDCHAR
STARTCHAR U+004A
ENCODING 74
SWIDTH 600 0
DWIDTH 6 0
BBX 5 9 0 0
BITMAP
08
08
08
08
08
08
88
88
70
ENDCHAR
STARTCHAR U+004B
ENCODING 75
SWIDTH 700 0
DWIDTH 7 0
BBX 6 9 0 0
BITMAP
84
88
90
A0
C0
A0
90
88
84
ENDCHAR
STARTCHAR U+004C
ENCODING 76
SWIDTH 700 0
DWIDTH 7 0
BBX 6 9 0 0
BITMAP
80
80
80
80
80
80
80
80
FC
ENDCHAR
STARTCHAR U+004D
ENCODING 77
SWIDTH 800 0
DWIDTH 8 0
BBX 7 9 0 0
BITMAP
82
C6
AA
92
92
82
82
82
82
ENDCHAR
STARTCHAR U+004E
ENCODING 78
SWIDTH 700 0
DWIDTH 7 0
BBX 6 9 0 0
BITMAP
84
84
C4
A4
94
8C
84
84
84
ENDCHAR
STARTCHAR U+004F
ENCODING 79
SWIDTH 700 0
DWIDTH 7 0
BBX 6 9 0 0
BITMAP
78
84
84
84
84
84
84
84
78
ENDCHAR
STARTCHAR U+0050
ENCODING 80
SWIDTH 700 0
DWIDTH 7 0
BBX 6 9 0 0
BITMAP
F8
84
84
84
F8
80
80
80
80
ENDCHAR
STARTCHAR U+0051
ENCODING 81
SWIDTH 700 0
DWIDTH 7 0
BBX 6 10 0 -1
BITMAP
78
84
84
84
84
84
84
94
78
04
ENDCHAR
STARTCHAR U+0052
ENCODING 82
SWIDTH 700 0
DWIDTH 7 0
BBX 6 9 0 0
BITMAP
F8
84
84
84
F8
A0
90
88
84
ENDCHAR
STARTCHAR U+0053
ENCODING 83
SWIDTH 700 0
DWIDTH 7 0
BBX 6 9 0 0
BITMAP
78
84
80
80
78
04
04
84
78
ENDCHAR
STARTCHAR U+0054
ENCODING 84
SWIDTH 800 0
DWIDTH 8 0
BBX 7 9 0 0
BITMAP
FE
10
10
10
10
10
10
10
10
ENDCHAR
STARTCHAR U+0055
ENCODING 85
SWIDTH 700 0
DWIDTH 7 0
BBX 6 9 0 0
BITMAP
84
84
84
84
84
84
84
84
78
ENDCHAR
STARTCHAR U+0056
ENCODING 86
SWIDTH 800 0
DWIDTH 8 0
BBX 7 9 0 0
BITMAP
82
82
82
82
82
82
44
28
10
ENDCHAR
STARTCHAR U+0057
ENCODING 87
SWIDTH 800 0
DWIDTH 8 0
BBX 7 9 0 0
BITMAP
82
82
82
82
92
92
92
AA
44
ENDCHAR
STARTCHAR U+0058
ENCODING 88
SWIDTH 800 0
DWIDTH 8 0
BBX 7 9 0 0
BITMAP
82
82
44
28
10
28
44
82
82
ENDCHAR
STARTCHAR U+0059
ENCODING 89
SWIDTH 800 0
DWIDTH 8 0
BBX 7 9 0 0
BITMAP
82
44
28
10
10
10
10
10
10
ENDCHAR
STARTCHAR U+005A
ENCODING 90
SWIDTH 800 0
DWIDTH 8 0
BBX 7 9 0 0
BITMAP
FE
02
04
08
10
20
40
80
FE
ENDCHAR
STARTCHAR U+005B
ENCODING 91
SWIDTH 300 0
DWIDTH 3 0
BBX 2 9 0 0
BITMAP
C0
80
80
80
80
80
80
80
C0
ENDCHAR
STARTCHAR U+005C
ENCODING 92
SWIDTH 600 0
DWIDTH 6 0
BBX 5 9 0 0
BITMAP
80
80
80
40
20
10
08
08
08
ENDCHAR
STARTCHAR U+005D
ENCODING 93
SWIDTH 300 0
DWIDTH 3 0
BBX 2 9 0 0
BITMAP
C0
40
40
40
40
40
40
40
C0
ENDCHAR
STARTCHAR U+005E
ENCODING 94
SWIDTH 400 0
DWIDTH 4 0
BBX 3 2 0 7
BITMAP
40
A0
ENDCHAR
STARTCHAR U+005F
ENCODING 95
SWIDTH 600 0
DWIDTH 6 0
BBX 5 1 0 -1
BITMAP
F8
ENDCHAR
STARTCHAR U+0060
ENCODING 96
SWIDTH 300 0
DWIDTH 3 0
BBX 2 4 0 5
BITMAP
C0
C0
80
40
ENDCHAR
STARTCHAR U+0061
ENCODING 97
SWIDTH 600 0
DWIDTH 6 0
BBX 5 6 0 1
BITMAP
70
08
78
88
88
78
ENDCHAR
STARTCHAR U+0062
ENCODING 98
SWIDTH 600 0
DWIDTH 6 0
BBX 5 8 0 1
BITMAP
80
80
F0
88
88
88
88
F0
ENDCHAR
STARTCHAR U+0063
ENCODING 99
SWIDTH 600 0
DWIDTH 6 0
BBX 5 6 0 1
BITMAP
70
88
80
80
88
70
ENDCHAR
STARTCHAR U+0064
ENCODING 100
SWIDTH 600 0
DWIDTH 6 0
BBX 5 8 0 1
BITMAP
08
08
78
88
88
88
88
78
ENDCHAR
STARTCHAR U+0065
ENCODING 101
SWIDTH 600 0
DWIDTH 6 0
BBX 5 6 0 1
BITMAP
70
88
F8
80
88
70
ENDCHAR
STARTCHAR U+0066
ENCODING 102
SWIDTH 500 0
DWIDTH 5 0
BBX 4 9 0 0
BITMAP
30
40
40
E0
40
40
40
40
40
ENDCHAR
STARTCHAR U+0067
ENCODING 103
SWIDTH 600 0
DWIDTH 6 0
BBX 5 8 0 -1
BITMAP
70
88
88
88
88
78
08
70
ENDCHAR
STARTCHAR U+0068
ENCODING 104
SWIDTH 600 0
DWIDTH 6 0
BBX 5 9 0 0
BITMAP
80
80
F0
88
88
88
88
88
88
ENDCHAR
STARTCHAR U+0069
ENCODING 105
SWIDTH 200 0
DWIDTH 2 0
BBX 1 8 0 1
BITMAP
80
00
80
80
80
80
80
80
ENDCHAR
STARTCHAR U+006A
ENCODING 106
SWIDTH 400 0
DWIDTH 4 0
BBX 3 10 0 -1
BITMAP
20
00
20
20
20
20
20
20
20
C0
ENDCHAR
STARTCHAR U+006B
ENCODING 107
SWIDTH 600 0
DWIDTH 6 0
BBX 5 8 0 1
BITMAP
80
80
90
A0
C0
A0
90
88
ENDCHAR
STARTCHAR U+006C
ENCODING 108
SWIDTH 400 0
DWIDTH 4 0
BBX 3 8 0 1
BITMAP
80
80
80
80
80
80
80
60
ENDCHAR
STARTCHAR U+006D
ENCODING 109
SWIDTH 800 0
DWIDTH 8 0
BBX 7 6 0 1
BITMAP
EC
92
92
92
92
92
ENDCHAR
STARTCHAR U+006E
ENCODING 110
SWIDTH 600 0
DWIDTH 6 0
BBX 5 6 0 1
BITMAP
F0
88
88
88
88
88
ENDCHAR
STARTCHAR U+006F
ENCODING 111
SWIDTH 600 0
DWIDTH 6 0
BBX 5 6 0 1
BITMAP
70
88
88
88
88
70
ENDCHAR
STARTCHAR U+0070
ENCODING 112
SWIDTH 600 0
DWIDTH 6 0
BBX 5 8 0 -1
BITMAP
F0
88
88
88
88
F0
80
80
ENDCHAR
STARTCHAR U+0071
ENCODING 113
SWIDTH 600 0
DWIDTH 6 0
BBX 5 8 0 -1
BITMAP
70
88
88
88
88
78
08
08
ENDCHAR
STARTCHAR U+0072
ENCODING 114
SWIDTH 500 0
DWIDTH 5 0
BBX 4 6 0 1
BITMAP
B0
C0
80
80
80
80
ENDCHAR
STARTCHAR U+0073
ENCODING 115
SWIDTH 600 0
DWIDTH 6 0
BBX 5 6 0 1
BITMAP
70
80
70
08
88
70
ENDCHAR
STARTCHAR U+0074
ENCODING 116
SWIDTH 500 0
DWIDTH 5 0
BBX 4 8 0 1
BITMAP
40
40
F0
40
40
40
40
30
ENDCHAR
STARTCHAR U+0075
ENCODING 117
SWIDTH 600 0
DWIDTH 6 0
BBX 5 6 0 1
BITMAP
88
88
88
88
88
78
ENDCHAR
STARTCHAR U+0076
ENCODING 118
SWIDTH 600 0
DWIDTH 6 0
BBX 5 6 0 1
BITMAP
88
88
88
88
50
20
ENDCHAR
STARTCHAR U+0077
ENCODING 119
SWIDTH 800 0
DWIDTH 8 0
BBX 7 6 0 1
BITMAP
82
82
82
92
AA
44
ENDCHAR
STARTCHAR U+0078
ENCODING 120
SWIDTH 600 0
DWIDTH 6 0
BBX 5 6 0 1
BITMAP
88
50
20
20
50
88
ENDCHAR
STARTCHAR U+0079
ENCODING 121
SWIDTH 600 0
DWIDTH 6 0
BBX 5 8 0 -1
BITMAP
88
88
88
88
88
78
08
F0
ENDCHAR
STARTCHAR U+007A
ENCODING 122
SWIDTH 600 0
DWIDTH 6 0
BBX 5 6 0 1
BITMAP
F8
10
20
20
40
F8
ENDCHAR
STARTCHAR U+007B
ENCODING 123
SWIDTH 400 0
DWIDTH 4 0
BBX 3 9 0 0
BITMAP
20
40
40
40
80
40
40
40
20
ENDCHAR
STARTCHAR U+007C
ENCODING 124
SWIDTH 600 0
DWIDTH 6 0
BBX 1 9 0 0
BITMAP
80
80
80
80
80
80
80
80
80
ENDCHAR
STARTCHAR U+007D
ENCODING 125
SWIDTH 400 0
DWIDTH 4 0
BBX 3 9 0 0
BITMAP
80
40
40
40
20
40
40
40
80
ENDCHAR
STARTCHAR U+007E
ENCODING 126
SWIDTH 700 0
DWIDTH 7 0
BBX 6 9 0 0
BITMAP
78
FC
84
84
FC
FC
B4
FC
48
ENDCHAR
STARTCHAR U+0020
ENCODING 32
SWIDTH 700 0
DWIDTH 7 0
BBX 6 9 0 0
BITMAP
A0
44
A4
04
14
14
5C
08
10
ENDCHAR
STARTCHAR U+0080
ENCODING 128
SWIDTH 0 0
DWIDTH 0 0
BBX 0 0 0 0
BITMAP
ENDCHAR
STARTCHAR U+0081
ENCODING 129
SWIDTH 1500 0
DWIDTH 15 0
BBX 3 3 6 3
BITMAP
E0
E0
E0
ENDCHAR
ENDFONT
